<?xml version="1.0" standalone="no"?>
<!DOCTYPE svg PUBLIC "-//W3C//DTD SVG 20010904//EN"
 "http://www.w3.org/TR/2001/REC-SVG-20010904/DTD/svg10.dtd">
<svg version="1.0" xmlns="http://www.w3.org/2000/svg"
 width="1680.000000pt" height="1680.000000pt" viewBox="0 0 1680.000000 1680.000000"
 preserveAspectRatio="xMidYMid meet">

<g transform="translate(0.000000,1680.000000) scale(0.100000,-0.100000)"
fill="#000000" stroke="none">
<path d="M7470 16603 c0 -54 101 -200 204 -297 22 -21 95 -91 161 -155 66 -65
155 -141 198 -170 81 -54 91 -74 41 -79 -37 -3 -193 -41 -394 -94 -161 -43
-321 -101 -555 -204 -16 -7 -61 -24 -100 -39 -311 -117 -589 -255 -850 -420
-98 -62 -170 -109 -175 -115 -3 -3 -25 -21 -50 -40 -40 -30 -231 -202 -285
-255 -81 -81 -246 -279 -301 -362 -71 -106 -153 -202 -209 -246 -57 -44 -225
-133 -316 -166 -75 -27 -201 -65 -351 -105 -133 -36 -148 -42 -148 -56 0 -18
143 -34 315 -36 346 -3 335 -3 335 -18 0 -8 -22 -32 -49 -53 -93 -75 -200
-218 -364 -488 -45 -75 -102 -196 -178 -380 -243 -588 -226 -557 -377 -711
-297 -302 -461 -393 -949 -523 -24 -7 -43 -16 -43 -21 0 -18 149 -42 293 -48
156 -5 254 5 362 39 33 10 80 19 105 21 43 3 45 2 48 -26 5 -37 -25 -281 -44
-364 -11 -47 -32 -89 -86 -170 -91 -138 -164 -291 -194 -410 -27 -105 -32
-261 -14 -394 5 -40 19 -146 30 -235 21 -170 49 -277 82 -313 27 -28 40 -14
28 30 -49 184 -21 432 73 630 l31 65 7 -131 c9 -164 24 -236 110 -537 39 -133
79 -294 89 -357 23 -134 26 -316 6 -407 -25 -115 -126 -254 -227 -311 -80 -44
-58 -71 39 -48 115 27 377 227 475 363 17 24 34 43 39 43 5 0 40 -64 78 -142
38 -79 95 -193 128 -255 32 -61 69 -138 82 -170 41 -101 141 -294 237 -455 49
-83 67 -198 59 -397 l-5 -154 23 22 c13 12 31 50 41 84 10 34 42 128 71 208
29 80 60 175 69 210 9 35 21 68 26 74 16 16 35 -15 62 -100 14 -44 41 -124 61
-178 28 -77 40 -129 52 -240 19 -166 11 -262 -35 -386 -32 -87 -108 -248 -121
-256 -5 -3 -21 0 -37 6 -84 32 -435 112 -568 129 -82 11 -211 28 -285 40 -427
64 -766 50 -1096 -45 -89 -26 -224 -88 -406 -186 -86 -47 -100 -52 -122 -41
-46 21 -55 63 -60 294 -6 240 -14 277 -89 420 -23 43 -50 95 -60 116 -10 20
-22 44 -27 52 -5 8 -23 38 -39 66 -24 42 -39 55 -75 69 -29 11 -59 16 -81 12
-91 -15 -190 -157 -280 -402 -44 -119 -90 -206 -156 -297 -27 -37 -49 -70 -49
-72 0 -20 -91 -86 -120 -86 -11 0 -30 18 -79 78 -35 43 -41 52 -80 123 -13 24
-26 46 -30 49 -3 3 -19 23 -35 45 -47 65 -84 92 -134 99 -123 17 -246 -86
-326 -274 -15 -36 -43 -96 -61 -135 -45 -91 -75 -171 -75 -195 0 -11 -4 -20
-9 -20 -10 0 -22 -167 -25 -339 -1 -126 -19 -184 -58 -197 -10 -3 -18 -10 -18
-15 0 -5 -14 -9 -31 -9 -17 0 -37 -7 -46 -16 -13 -12 -31 -14 -96 -10 -44 3
-85 10 -91 16 -5 5 -18 10 -28 10 -9 0 -22 9 -28 21 -7 11 -17 18 -24 16 -7
-3 -28 9 -47 25 -34 31 -123 78 -146 78 -7 0 -13 5 -13 11 0 6 -7 8 -16 5 -8
-3 -12 -2 -9 3 3 5 1 12 -5 16 -5 3 -10 1 -10 -5 0 -6 -5 -8 -10 -5 -6 4 -8
11 -5 16 4 5 -1 9 -9 9 -14 0 -16 -306 -16 -3175 l0 -3175 8400 0 8400 0 0
2149 0 2149 -37 4 c-73 9 -239 -33 -229 -58 3 -8 -6 -15 -25 -19 -16 -4 -29
-12 -29 -18 0 -7 -9 -18 -20 -25 -11 -7 -17 -18 -14 -27 4 -8 1 -15 -5 -15
-17 0 -60 -52 -61 -72 0 -10 -6 -18 -13 -18 -17 0 -67 -58 -67 -77 0 -9 -6
-13 -14 -10 -8 3 -20 -1 -26 -9 -7 -8 -23 -14 -36 -14 -13 0 -24 -5 -24 -11 0
-9 -26 -10 -97 -3 -155 14 -307 8 -411 -16 -106 -25 -172 -28 -284 -11 -5 1
-8 8 -8 16 0 9 -8 18 -17 22 -19 6 -83 69 -83 81 0 4 -16 27 -35 51 -19 24
-35 48 -35 52 0 5 -6 9 -13 9 -7 0 -23 17 -34 38 -24 40 -105 132 -119 132 -4
0 -19 11 -33 24 -76 73 -211 101 -268 56 -14 -11 -34 -20 -44 -20 -9 0 -32
-18 -49 -40 -17 -22 -37 -40 -44 -40 -7 0 -23 -12 -35 -26 -12 -14 -47 -37
-77 -50 -49 -22 -58 -30 -76 -74 -11 -28 -25 -50 -29 -50 -5 0 -9 -7 -9 -15 0
-23 -80 -21 -80 3 -1 15 -2 15 -16 -3 -13 -17 -16 -18 -24 -5 -5 8 -10 34 -10
58 0 31 -4 42 -15 42 -8 0 -15 5 -15 11 0 6 -11 20 -25 31 -14 11 -25 24 -25
29 0 5 11 9 25 9 16 0 25 6 25 15 0 11 -11 15 -40 15 -36 0 -40 3 -40 25 l0
25 -160 0 c-133 0 -160 -2 -160 -15 0 -12 -17 -14 -98 -11 -98 4 -142 17 -142
43 0 7 -8 13 -18 13 -21 0 -52 29 -52 48 0 7 -3 12 -7 12 -10 0 -43 57 -43 73
0 20 -78 169 -110 209 -123 156 -258 209 -363 140 -23 -15 -51 -38 -62 -51
-11 -13 -34 -40 -51 -60 -39 -46 -76 -118 -139 -271 -11 -25 -27 -57 -37 -72
-10 -14 -18 -29 -18 -32 0 -3 -14 -25 -30 -48 -17 -24 -38 -53 -47 -66 -8 -12
-68 -75 -132 -140 -64 -65 -127 -132 -140 -150 -24 -33 -72 -55 -96 -46 -8 4
-15 1 -15 -5 0 -12 -29 -15 -31 -3 -1 4 -3 16 -5 27 -2 11 -13 58 -24 104 -15
63 -20 111 -18 185 2 121 -20 201 -107 379 -30 62 -55 123 -55 137 0 14 -9 54
-19 90 -42 149 -65 225 -71 230 -3 3 -17 32 -29 65 -13 33 -32 80 -43 105 -29
65 -43 99 -63 150 -9 25 -22 56 -27 70 -6 14 -21 57 -33 96 -13 39 -31 87 -41
106 -20 42 -26 31 98 176 124 144 235 320 277 439 55 152 113 245 123 195 2
-9 10 6 17 33 32 122 55 194 81 253 29 62 51 82 44 40 -3 -13 -10 -60 -18
-105 -9 -56 -11 -107 -6 -165 10 -102 23 -138 49 -138 30 0 34 16 20 85 -12
60 -11 69 15 157 57 190 150 365 242 453 49 48 74 65 74 51 0 -2 -14 -35 -31
-73 -51 -113 -79 -235 -85 -363 -5 -116 1 -148 28 -138 9 4 18 38 26 94 7 49
22 126 34 171 21 85 73 183 88 167 5 -5 40 -72 78 -149 87 -173 147 -255 231
-312 34 -23 67 -40 72 -37 11 6 -5 38 -38 78 -52 63 -65 103 -76 247 -12 159
-2 231 38 269 l24 23 123 -118 c226 -217 396 -353 540 -433 95 -53 130 -37 62
29 -76 73 -157 219 -191 343 -22 83 -24 286 -3 307 8 8 61 54 118 103 113 97
224 224 259 295 12 25 23 41 23 36 0 -18 85 -114 125 -143 56 -41 165 -81 265
-97 110 -19 109 -19 121 9 15 32 -4 65 -78 141 -33 33 -62 68 -65 77 -14 35
52 285 119 451 24 59 63 155 86 215 73 180 125 419 147 677 19 223 54 440 106
665 32 136 34 141 44 114 19 -50 52 -298 53 -399 1 -167 -10 -366 -22 -405
-13 -42 -15 -103 -2 -80 5 8 14 40 20 70 7 30 21 84 31 120 36 126 69 286 81
390 6 58 15 290 18 515 4 226 11 418 15 428 5 10 14 16 20 15 6 -2 38 -58 71
-124 34 -66 82 -150 107 -185 44 -62 257 -265 343 -327 22 -16 77 -60 123 -99
77 -65 95 -75 260 -141 177 -70 252 -92 252 -73 0 6 -21 25 -48 43 -120 82
-218 167 -342 295 -247 254 -310 339 -447 603 -68 130 -158 365 -151 395 2 12
18 8 78 -21 102 -50 230 -90 383 -120 123 -25 177 -26 177 -4 0 6 -12 15 -27
21 -40 15 -264 156 -332 209 -294 227 -440 384 -496 530 -27 71 -71 266 -105
460 -20 118 -28 158 -79 370 -63 264 -76 312 -108 385 -19 44 -59 124 -90 178
-31 54 -53 101 -49 104 3 3 72 -25 153 -62 82 -37 198 -85 258 -105 175 -59
335 -111 405 -132 176 -51 594 -87 690 -58 19 5 60 10 92 10 31 0 69 5 85 11
51 19 3 29 -153 29 -159 1 -169 3 -384 74 -102 33 -180 62 -286 104 -173 70
-587 352 -829 567 -38 34 -103 87 -143 119 -40 31 -121 104 -180 160 -59 57
-134 128 -167 157 -132 119 -285 281 -285 301 0 5 37 26 83 47 91 44 194 117
275 195 80 78 68 86 -49 32 -165 -75 -458 -120 -519 -79 -14 9 -68 57 -120
107 -107 102 -220 203 -324 289 -39 33 -84 71 -101 86 -50 44 -237 195 -275
221 -19 13 -37 27 -40 30 -13 17 -262 177 -377 242 -139 80 -360 191 -463 233
-36 15 -79 33 -95 41 -17 8 -44 18 -60 24 -17 5 -61 21 -100 35 -139 53 -303
97 -480 132 -129 25 -159 27 -385 27 -135 0 -282 -2 -328 -5 -117 -6 -121 5
-55 178 37 99 100 194 155 236 187 142 416 184 873 158 88 -5 162 -7 164 -5 6
6 -22 36 -44 45 -11 5 -27 13 -35 18 -30 18 -156 62 -235 81 -164 41 -331 50
-498 25 -130 -20 -220 -53 -362 -135 -22 -13 -49 -28 -60 -34 -39 -22 -141
-95 -180 -130 -22 -20 -58 -51 -80 -68 -22 -18 -83 -79 -135 -136 -100 -109
-120 -125 -142 -117 -7 3 -42 42 -78 86 -166 206 -387 374 -600 457 -235 91
-575 92 -775 2 -22 -10 -50 -21 -62 -25 -27 -7 -31 -35 -5 -35 9 -1 40 -3 67
-5 28 -2 109 -7 180 -10 72 -3 157 -10 190 -16 107 -20 387 -115 491 -166 167
-83 434 -269 434 -302 0 -13 -39 -13 -100 -1 -105 22 -539 84 -580 83 -25 -1
-121 10 -215 23 -93 13 -234 31 -313 39 -78 8 -172 21 -210 29 -37 8 -85 18
-106 21 -73 12 -146 46 -231 109 -142 105 -278 230 -385 356 -56 66 -104 120
-106 120 -2 0 -4 -8 -4 -17z m3080 -5897 c0 -61 -12 -76 -40 -51 -18 17 -18
18 3 61 11 24 25 44 29 44 4 0 8 -24 8 -54z m-59 -153 c25 -19 41 -38 44 -58
4 -17 -1 -112 -9 -212 -14 -151 -25 -215 -66 -380 -55 -216 -82 -282 -167
-400 -139 -194 -324 -379 -544 -544 -107 -81 -150 -119 -135 -119 32 0 211 61
323 111 167 74 203 84 203 59 0 -19 -197 -204 -297 -278 -34 -26 -60 -48 -58
-51 3 -2 10 1 17 6 7 5 29 16 48 23 30 11 165 88 385 218 147 87 391 294 459
390 13 19 26 30 29 25 9 -14 -19 -244 -42 -356 -37 -177 -119 -393 -193 -512
-44 -69 -111 -158 -178 -235 -67 -76 -85 -106 -70 -115 18 -11 149 14 296 56
115 33 148 38 175 31 l34 -9 -30 -19 c-32 -20 -64 -44 -172 -132 -37 -29 -83
-63 -105 -75 -22 -13 -36 -27 -33 -35 3 -7 1 -10 -4 -7 -5 3 -13 0 -17 -6 -5
-8 5 -9 32 -5 22 3 45 2 53 -3 8 -5 49 3 115 24 228 73 329 124 596 302 69 45
132 83 139 83 11 0 12 -24 6 -123 -6 -104 -4 -129 10 -163 9 -21 20 -59 23
-84 11 -72 34 -64 62 22 32 102 51 148 59 148 4 0 25 -26 46 -57 62 -92 137
-183 146 -177 5 3 9 38 9 78 0 85 18 237 30 250 5 4 21 1 37 -7 15 -8 96 -48
178 -88 83 -40 158 -79 168 -87 9 -8 17 -28 17 -44 0 -46 -56 -147 -116 -209
-77 -82 -73 -88 14 -22 24 18 50 33 59 33 8 0 41 25 74 57 36 34 59 50 59 40
0 -13 -59 -125 -80 -152 -4 -5 -11 -20 -14 -32 -14 -46 23 -23 79 49 56 72 92
105 101 95 7 -7 -41 -185 -68 -257 -12 -30 -54 -124 -94 -208 -69 -142 -79
-157 -149 -224 -41 -39 -75 -75 -75 -78 0 -4 26 -1 57 6 103 24 403 59 403 47
0 -2 -33 -70 -74 -151 -40 -81 -81 -168 -91 -194 -10 -27 -20 -48 -24 -48 -3
0 -17 25 -30 55 -15 35 -41 71 -76 102 -29 26 -86 77 -125 113 -40 36 -78 70
-84 75 -6 6 -65 60 -131 121 -132 122 -355 304 -453 370 -86 58 -184 92 -489
169 -142 35 -330 87 -418 114 -197 62 -677 198 -885 252 -85 22 -238 67 -340
99 -102 33 -232 73 -290 91 -58 18 -195 66 -305 107 -110 41 -258 94 -329 118
-194 67 -362 153 -613 313 l-52 33 27 37 c15 20 45 59 68 88 38 48 42 50 48
30 3 -12 6 -67 6 -122 0 -65 4 -105 12 -113 28 -28 35 -11 42 107 6 119 32
244 60 298 22 42 211 232 296 297 74 57 366 278 402 305 13 9 18 26 18 58 0
36 4 46 20 50 23 6 27 23 5 23 -9 0 -15 9 -15 21 0 16 4 19 18 14 9 -4 30 -10
45 -13 16 -2 40 -15 54 -28 14 -13 30 -24 34 -24 5 0 9 -6 9 -13 0 -18 -73
-80 -280 -236 -96 -73 -179 -139 -183 -147 -11 -20 32 -18 85 3 45 18 213 104
284 143 l40 23 75 -35 c41 -19 115 -52 164 -73 50 -21 95 -41 100 -45 10 -7
128 -57 342 -143 l113 -46 6 24 c10 41 0 59 -46 83 -61 32 -81 52 -78 76 3 18
9 21 43 19 22 -2 60 -10 83 -19 52 -19 62 -13 81 54 9 31 16 42 27 38 8 -3 14
-1 14 4 0 6 9 1 20 -10 11 -11 26 -20 33 -20 8 0 7 3 -3 10 -8 5 -11 12 -7 16
4 4 12 3 18 -3 6 -6 19 -9 28 -5 14 5 14 4 2 -11 -8 -10 -9 -17 -3 -17 6 0 13
4 16 9 3 5 24 -9 46 -31 39 -39 50 -56 30 -43 -5 3 -7 0 -4 -9 3 -8 12 -12 21
-9 9 4 14 0 13 -8 -6 -39 0 -58 17 -52 12 5 15 2 10 -10 -4 -10 1 -21 12 -29
10 -7 20 -20 24 -28 4 -12 6 -11 6 3 1 9 6 17 11 17 13 0 13 47 -1 55 -6 4 -8
13 -5 20 3 8 0 16 -7 19 -7 2 -5 5 4 5 21 1 57 -27 121 -95 53 -56 68 -65 68
-39 0 26 -34 84 -119 205 -73 102 -80 115 -61 118 12 2 63 -20 118 -52 60 -34
99 -51 101 -44 6 19 -41 50 -175 116 -68 34 -124 67 -124 72 0 6 -7 10 -15 10
-8 0 -15 4 -15 9 0 4 12 6 28 3 l27 -5 -35 33 c-19 18 -45 39 -57 47 -46 30
-26 56 87 115 19 10 76 47 125 83 50 36 94 65 100 65 19 0 118 -117 156 -185
21 -38 51 -103 65 -142 29 -78 49 -97 38 -35 -19 104 -86 238 -169 336 l-52
61 74 80 c116 125 254 287 266 312 14 30 40 29 88 -4z m-1711 -584 c0 -7 -32
-29 -42 -29 -2 0 -4 8 -4 18 0 11 9 18 23 18 13 1 23 -2 23 -7z m319 -85 c10
-10 -20 -54 -36 -54 -24 1 -53 24 -53 43 0 8 8 18 18 20 17 5 63 -1 71 -9z
m-141 -261 c-2 -21 -9 -29 -27 -31 -13 -2 -21 0 -17 6 3 6 1 12 -6 14 -17 6
12 37 35 38 14 0 18 -6 15 -27z m-3225 -15 c2 -7 -2 -44 -10 -83 -19 -102 -17
-238 6 -327 55 -213 166 -454 239 -519 25 -21 48 -39 53 -39 4 0 20 -5 36 -11
15 -7 45 -13 65 -13 45 -2 71 -25 146 -126 53 -72 78 -100 93 -100 3 0 17 26
29 58 20 49 23 79 26 212 4 168 11 240 23 240 5 0 21 -35 36 -77 15 -43 56
-146 91 -228 56 -134 81 -214 110 -363 5 -24 13 -43 19 -43 13 -1 33 63 50
157 10 58 29 112 68 192 30 61 69 151 87 201 18 50 36 91 40 91 4 0 16 -33 25
-72 27 -112 83 -266 122 -338 41 -75 120 -197 134 -205 23 -15 3 -51 -77 -134
-90 -95 -197 -181 -257 -206 -73 -30 -299 -76 -520 -105 -72 -9 -84 -8 -154
15 -86 29 -167 78 -205 124 -15 17 -53 80 -84 139 -32 59 -124 220 -205 359
-186 320 -244 461 -274 675 -17 122 -19 238 -4 307 8 39 20 58 55 91 25 22 64
49 88 60 24 10 63 32 87 49 47 34 55 37 62 19z m3448 -108 c-25 -21 -44 -18
-34 5 3 8 17 15 32 15 l26 -1 -24 -19z m3043 -834 c-1 -80 -13 -97 -52 -76
-37 21 -38 47 -2 103 41 65 55 57 54 -27z m-388 -150 c7 -19 -13 -56 -31 -56
-21 0 -26 15 -15 44 10 28 37 35 46 12z m354 -142 c0 -8 -4 -12 -10 -9 -5 3
-10 10 -10 16 0 5 5 9 10 9 6 0 10 -7 10 -16z m35 -127 c4 5 5 3 1 -4 -3 -6 4
-28 16 -49 15 -26 18 -39 10 -42 -15 -5 -16 -23 -1 -19 6 1 14 -4 16 -10 3 -7
-2 -13 -11 -13 -9 0 -16 -4 -16 -10 0 -5 5 -10 10 -10 6 0 10 -4 10 -10 0 -5
-9 -10 -21 -10 -13 0 -18 5 -14 13 3 6 0 4 -7 -6 -38 -55 -31 -53 -86 -18 -30
19 -54 43 -60 59 -6 18 -24 34 -50 46 -41 19 -70 62 -59 90 6 16 46 10 111
-18 59 -25 75 -21 92 21 l16 36 17 -27 c10 -14 21 -23 26 -19z m-4587 6 c4
-28 -29 -66 -48 -54 -12 9 -12 15 3 46 18 38 40 42 45 8z m4266 -24 c33 -39
33 -51 0 -39 -49 19 -64 31 -64 50 0 30 34 25 64 -11z m455 -11 c0 -7 -4 -22
-9 -33 -7 -16 -9 -14 -7 13 1 17 5 32 9 32 4 0 8 -6 7 -12z m-32 -20 c-3 -8
-6 -5 -6 6 -1 11 2 17 5 13 3 -3 4 -12 1 -19z m11 -53 c-3 -3 -9 2 -12 12 -6
14 -5 15 5 6 7 -7 10 -15 7 -18z m-13 -15 c3 -6 -1 -7 -9 -4 -18 7 -21 14 -7
14 6 0 13 -4 16 -10z m-4561 -41 c14 -17 26 -43 26 -57 0 -34 -104 -192 -126
-192 -20 0 -15 51 17 192 24 100 38 110 83 57z m4556 11 c0 -5 -4 -10 -10 -10
-5 0 -10 5 -10 10 0 6 5 10 10 10 6 0 10 -4 10 -10z m-20 -37 c0 -10 -4 -24
-9 -31 -5 -9 -8 -3 -7 17 1 32 16 45 16 14z m-4347 -193 c20 -16 99 -112 152
-186 6 -9 3 -22 -13 -43 -12 -17 -22 -33 -22 -36 0 -9 -220 -332 -234 -344
-23 -19 -27 14 -16 108 12 96 49 321 55 331 2 3 9 44 15 90 15 112 18 115 63
80z m-418 -39 c-13 -76 -41 -156 -55 -156 -18 0 -31 59 -24 107 7 46 38 88 66
88 17 0 19 -4 13 -39z m195 -214 c0 -18 -4 -58 -10 -88 -5 -30 -16 -118 -24
-196 -8 -79 -18 -147 -21 -153 -13 -21 -32 10 -65 100 -41 113 -38 155 15 243
50 82 84 127 96 127 5 0 9 -15 9 -33z m606 -154 c49 -53 93 -105 97 -116 6
-16 -3 -38 -35 -88 -91 -144 -239 -359 -248 -359 -25 0 -21 81 20 351 11 74
25 166 30 204 13 89 18 105 34 105 7 0 53 -43 102 -97z m-2121 -130 c33 -79
45 -164 45 -321 0 -187 21 -495 50 -747 19 -163 61 -420 75 -466 6 -18 2 -19
-52 -13 -50 5 -114 17 -226 41 -21 4 -26 2 -22 -8 7 -19 97 -79 118 -79 9 0
17 -4 17 -10 0 -5 28 -10 63 -11 50 -1 26 -6 -128 -30 -104 -16 -225 -32 -269
-36 l-79 -6 6 29 c7 34 59 218 93 325 20 64 66 295 63 317 -1 4 -1 25 0 47 2
40 2 39 38 -42 19 -46 39 -83 43 -83 5 0 10 109 12 243 4 228 6 256 47 497 50
303 71 401 83 394 4 -3 15 -22 23 -41z m1805 -135 c0 -7 -15 -98 -34 -203 -19
-104 -37 -221 -41 -260 -4 -38 -11 -78 -14 -89 -7 -17 -9 -16 -24 7 -22 33
-88 204 -94 244 -4 25 2 44 29 85 19 29 45 71 58 93 62 106 120 165 120 123z
m710 -69 c36 -26 80 -63 99 -83 l34 -35 -23 -53 c-49 -116 -342 -698 -351
-698 -24 0 -2 192 71 605 63 357 58 337 83 324 12 -7 51 -33 87 -60z m-3335
-119 c-6 -87 -5 -104 10 -119 18 -21 23 -77 8 -92 -6 -6 -26 -4 -57 6 -26 9
-73 20 -103 25 -31 5 -61 14 -66 19 -5 5 9 29 35 58 24 28 69 85 102 127 32
42 63 76 68 76 7 0 7 -37 3 -100z m950 -11 c4 -17 13 -33 21 -36 8 -3 14 -11
14 -18 0 -8 15 -33 34 -57 18 -25 49 -78 69 -119 19 -41 58 -121 85 -179 63
-131 150 -269 367 -583 29 -42 71 -105 91 -140 21 -34 59 -89 84 -122 56 -74
191 -262 207 -289 16 -27 17 -60 2 -50 -6 4 -27 10 -47 15 -56 12 -85 -9 -112
-83 -32 -86 -47 -106 -85 -117 -50 -14 -76 -4 -161 60 -48 35 -93 61 -114 65
-19 3 -51 9 -70 13 -30 7 -32 9 -15 15 11 4 37 15 58 23 32 14 44 14 93 3 61
-15 65 -18 79 -75 7 -29 15 -40 29 -40 15 0 23 13 36 60 9 33 22 60 28 59 7
-1 16 -2 21 -2 5 -1 16 -20 25 -42 18 -46 41 -55 33 -12 -3 15 1 53 10 85 13
46 13 61 4 66 -7 5 -13 25 -15 46 -2 42 -14 52 -43 37 -10 -6 -67 -12 -127
-13 -87 -3 -109 -1 -116 11 -34 60 -84 90 -151 90 -36 0 -45 7 -40 34 4 19
-24 35 -92 51 -89 22 -106 30 -105 53 0 25 -10 118 -32 287 -23 183 -38 323
-50 475 -5 63 -14 165 -21 225 -19 178 -22 248 -11 241 6 -3 13 -20 17 -37z
m2091 -42 c4 -12 -48 -358 -81 -536 -8 -42 -24 -148 -35 -236 -12 -88 -25
-166 -29 -173 -19 -33 -281 315 -281 374 0 24 71 142 151 249 33 44 84 115
115 157 119 167 148 196 160 165z m762 -142 c59 -30 118 -63 131 -74 l24 -18
-63 -119 c-109 -205 -220 -393 -364 -611 -52 -80 -49 -51 44 422 62 310 80
397 95 443 7 19 21 15 133 -43z m-3382 -57 c-1 -88 -13 -107 -41 -65 -15 24
-14 28 12 86 15 34 28 61 29 61 0 0 0 -37 0 -82z m3904 -170 l75 -24 -2 -37
c-5 -74 -223 -591 -320 -756 -30 -52 -45 -41 -37 29 20 165 106 772 114 801
l10 37 43 -13 c23 -7 76 -24 117 -37z m-890 -90 c0 -20 -18 -124 -95 -543 -19
-104 -40 -221 -47 -259 -7 -38 -18 -71 -23 -73 -16 -5 -155 126 -186 176 -28
43 -28 44 -12 85 15 37 209 409 286 546 48 88 77 113 77 68z m1350 -61 c127
-26 126 -25 79 -165 -36 -111 -210 -555 -239 -613 -26 -49 -40 -50 -40 -1 0
214 31 747 46 785 8 21 24 20 154 -6z m-815 -256 c-9 -80 -27 -225 -40 -321
-13 -96 -31 -237 -40 -312 -15 -132 -28 -193 -46 -212 -24 -27 -409 162 -409
201 0 17 245 419 343 563 47 69 102 155 122 190 21 36 47 76 59 88 l21 24 3
-37 c2 -21 -4 -103 -13 -184z m1385 170 l45 -6 -2 -43 c-4 -97 -275 -724 -319
-739 -12 -4 -29 781 -18 799 7 11 200 4 294 -11z m807 -37 c11 -29 -109 -304
-136 -312 -12 -4 -13 8 -8 64 4 57 34 199 52 252 7 18 84 16 92 -4z m-273 0
c26 -10 19 -57 -18 -126 -18 -35 -56 -106 -83 -158 -70 -131 -152 -271 -171
-293 -13 -14 -17 -15 -23 -4 -8 13 7 488 17 555 l5 32 129 0 c70 0 135 -3 144
-6z m-1431 -177 c3 -7 1 -50 -3 -94 -5 -45 -14 -225 -20 -400 -6 -175 -13
-338 -16 -362 l-6 -43 -76 6 c-125 11 -235 26 -271 38 -30 9 -32 13 -27 39 3
16 42 102 88 191 128 253 142 283 214 443 88 194 103 218 117 182z m997 -162
c0 -43 -14 -173 -45 -405 -12 -91 -18 -108 -40 -127 -23 -21 -197 -83 -230
-83 -28 0 -15 41 48 153 35 62 76 133 90 160 28 50 117 256 117 270 0 5 7 24
16 43 24 50 44 44 44 -11z m-554 -332 c-4 -194 -12 -353 -17 -359 -14 -17
-130 -44 -220 -51 -67 -5 -79 -4 -79 9 0 18 117 313 147 373 12 22 42 96 67
165 54 144 85 210 99 210 7 0 8 -115 3 -347z m970 241 c-8 -64 -51 -156 -89
-192 -31 -30 -87 -53 -87 -36 0 9 48 91 124 217 44 71 61 75 52 11z m-5406
-302 c0 -9 -64 -46 -97 -57 -19 -5 -23 -2 -23 13 0 13 12 25 38 35 41 17 82
22 82 9z m383 -19 c41 -23 67 -44 67 -55 0 -15 -23 -8 -47 14 -12 12 -40 29
-60 39 -32 15 -34 18 -15 18 13 1 38 -7 55 -16z m455 -48 c12 -4 20 -11 17
-16 -9 -13 -47 -11 -67 5 -20 15 -13 28 11 22 9 -2 26 -7 39 -11z m-421 -52
c-9 -9 -19 -14 -23 -11 -10 10 6 28 24 28 15 0 15 -1 -1 -17z m-537 -14 c0 -5
-7 -9 -15 -9 -9 0 -12 6 -9 15 6 15 24 11 24 -6z m470 -13 c0 -2 -38 -22 -85
-45 -47 -23 -85 -46 -85 -51 0 -4 -19 -23 -41 -41 -49 -39 -40 -12 13 37 49
47 198 122 198 100z m-422 -43 c-3 -14 -15 -19 -63 -21 -48 -2 -57 -1 -48 9
11 11 35 17 106 28 5 0 7 -7 5 -16z m441 -15 c-14 -13 -48 -41 -77 -62 -55
-43 -129 -134 -139 -173 -4 -19 -8 -22 -15 -11 -6 8 -7 2 -3 -19 4 -22 3 -33
-5 -33 -6 0 -8 -5 -5 -11 4 -5 4 -22 0 -36 l-6 -26 -16 22 c-8 12 -12 25 -9
28 3 4 6 1 6 -5 0 -7 5 -12 10 -12 14 0 13 27 -1 32 -15 5 35 121 78 180 20
28 65 67 111 98 82 53 111 65 71 28z m444 3 c4 -1 7 -10 7 -20 0 -14 18 -29
61 -51 78 -40 179 -110 179 -126 0 -26 -30 -22 -47 6 l-17 30 -32 -31 c-26
-25 -35 -29 -51 -21 -44 24 -179 195 -168 212 4 6 19 8 33 6 15 -2 30 -5 35
-5z m722 -59 c22 -30 58 -80 79 -111 54 -76 272 -357 326 -421 14 -16 40 -46
57 -67 18 -21 44 -51 59 -68 14 -16 29 -39 33 -50 5 -11 17 -20 27 -20 12 0
19 -8 20 -20 2 -55 4 -61 14 -45 12 20 21 9 24 -31 3 -30 -1 -37 -38 -60 -81
-52 -80 -52 -129 -16 -62 44 -179 140 -196 160 -21 26 -51 21 -116 -18 -61
-37 -71 -36 -77 5 -2 18 -10 26 -29 28 -21 2 -33 -7 -68 -53 -50 -66 -74 -70
-79 -12 -4 53 -27 46 -64 -20 -42 -75 -50 -109 -30 -130 13 -12 14 -17 4 -21
-9 -3 -10 -7 -2 -17 17 -20 -4 -27 -48 -16 -53 15 -118 72 -109 96 6 15 15 17
57 12 43 -5 50 -4 50 12 0 48 -120 97 -305 126 -56 8 -145 36 -145 45 0 15 26
28 68 35 45 7 53 19 25 33 -35 18 -79 20 -180 8 -81 -9 -105 -15 -116 -30 -14
-19 -15 -19 -26 3 -15 28 -6 60 11 43 31 -31 38 14 12 87 -8 24 -12 46 -9 50
9 9 45 -40 51 -71 6 -27 28 -43 45 -32 13 7 11 52 -2 56 -6 2 -9 15 -7 28 l4
25 12 -27 c6 -16 13 -28 16 -28 2 0 12 -3 22 -7 15 -5 16 -2 10 31 -4 20 -20
64 -35 99 -26 59 -31 63 -75 75 -25 6 -72 12 -102 12 -66 0 -104 -20 -149 -80
-36 -47 -54 -45 -109 12 -21 22 -54 45 -72 50 -34 9 -34 9 -34 72 0 79 42 171
102 219 22 17 54 44 71 60 17 15 39 28 49 28 10 1 24 2 31 3 20 4 29 -5 17
-18 -19 -24 -23 -99 -6 -138 18 -42 38 -48 74 -22 17 12 35 14 66 10 39 -6 44
-11 64 -54 12 -26 19 -36 16 -22 -3 14 -8 35 -11 48 -7 27 7 28 82 7 40 -12
67 -30 108 -69 30 -30 64 -57 75 -60 11 -4 25 -20 32 -36 7 -17 15 -30 18 -30
10 0 42 33 42 44 0 5 14 24 31 42 26 27 29 35 20 52 -26 48 1 66 63 42 36 -13
112 16 142 55 12 17 29 53 35 80 21 81 36 92 116 87 45 -4 50 -7 88 -60z
m-1657 -24 c-6 -18 -53 -39 -102 -46 -37 -5 -40 -4 -27 11 7 10 34 24 60 31
58 18 74 19 69 4z m-63 -117 c3 -6 -7 -18 -22 -28 -45 -30 -153 -141 -153
-157 0 -25 18 -19 64 19 43 35 106 57 106 37 0 -5 -17 -24 -37 -42 -71 -59
-85 -70 -88 -70 -1 0 -23 12 -49 26 -42 23 -45 28 -34 47 19 37 101 118 147
148 49 31 57 34 66 20z m229 -28 c-4 -16 -11 -32 -15 -37 -5 -6 -9 -59 -9
-119 0 -105 11 -183 31 -220 18 -34 2 -29 -19 5 -39 64 -47 230 -16 338 16 59
41 87 28 33z m-125 -237 c1 -57 -11 -36 -15 26 -2 37 -1 47 6 33 5 -11 9 -38
9 -59z m341 -26 c6 -11 8 -20 6 -20 -3 0 -10 9 -16 20 -6 11 -8 20 -6 20 3 0
10 -9 16 -20z m300 -35 c0 -13 9 -48 21 -77 18 -45 19 -59 9 -90 -6 -21 -16
-38 -23 -38 -20 0 -201 94 -205 106 -1 6 11 14 28 17 16 4 30 13 30 21 0 7 9
24 20 37 l21 24 -6 -50 c-6 -54 -3 -62 35 -86 41 -26 45 -23 42 42 -4 67 5
119 19 119 5 0 9 -11 9 -25z m3889 -211 c-12 -27 -25 -64 -29 -84 -4 -30 -10
-35 -35 -38 -17 -2 -33 -9 -37 -15 -5 -8 -14 -5 -30 9 -13 11 -36 26 -53 33
l-30 13 35 29 c19 15 39 29 43 29 4 0 20 8 35 18 95 65 107 71 115 63 6 -6 0
-29 -14 -57z m-3739 -176 c12 -7 11 -8 -5 -3 -11 4 -27 8 -35 8 -8 0 -24 6
-35 13 -11 8 -27 14 -36 14 -9 0 -22 7 -29 15 -9 11 8 7 56 -11 38 -14 75 -30
84 -36z m381 -59 c61 -41 122 -108 186 -204 40 -60 103 -186 103 -206 0 -23
-18 4 -45 68 -75 177 -199 313 -360 395 -18 10 -37 22 -40 28 -10 16 90 -36
156 -81z m-106 -59 c3 -6 -1 -7 -9 -4 -18 7 -21 14 -7 14 6 0 13 -4 16 -10z
m425 -40 c-24 -15 -36 -11 -14 4 10 8 21 12 24 10 2 -3 -2 -9 -10 -14z m55
-20 c3 -5 1 -10 -4 -10 -6 0 -11 5 -11 10 0 6 2 10 4 10 3 0 8 -4 11 -10z
m258 -84 c20 -16 37 -32 37 -37 0 -14 -34 -10 -58 7 -22 15 -25 15 -46 -5 -26
-25 -49 -27 -66 -6 -18 22 -44 20 -35 -2 15 -36 17 -61 6 -82 -16 -28 -41 -28
-33 1 4 17 2 20 -11 15 -10 -4 -17 -2 -17 3 0 5 -19 8 -42 7 -36 -2 -43 1 -43
17 0 13 25 35 75 66 70 44 79 47 135 46 50 -1 68 -7 98 -30z m-568 5 c3 -5 1
-12 -5 -16 -5 -3 -10 1 -10 9 0 18 6 21 15 7z m240 -12 c4 -5 4 -22 0 -36 l-6
-26 -21 21 c-18 17 -19 23 -8 36 15 19 26 20 35 5z m-181 -61 c7 -5 4 -8 -6
-8 -10 0 -18 -5 -18 -12 0 -26 -12 3 -15 37 -3 37 -3 37 13 13 9 -12 21 -26
26 -30z m766 22 c0 -5 -2 -10 -4 -10 -3 0 -8 5 -11 10 -3 6 -1 10 4 10 6 0 11
-4 11 -10z m377 -65 c18 -52 26 -59 52 -44 37 24 45 1 32 -86 -6 -42 -11 -83
-11 -91 0 -26 24 -10 45 31 11 21 26 40 33 43 19 6 15 -90 -7 -138 -23 -51
-18 -70 16 -70 23 0 25 -3 20 -37 -2 -21 -14 -61 -27 -89 -26 -59 -22 -104 10
-104 23 0 26 -32 9 -95 -12 -44 2 -130 28 -173 24 -39 8 -35 -23 5 -15 21 -35
42 -43 47 -8 5 -42 35 -76 67 -63 60 -149 129 -161 129 -4 0 -22 11 -40 25
-18 14 -37 25 -43 25 -6 0 -11 5 -11 10 0 6 5 10 10 10 6 0 23 14 38 32 l29
31 29 -22 c45 -33 68 -20 59 33 -13 82 -14 81 30 86 35 4 40 9 43 32 2 18 -9
46 -32 81 -43 68 -50 72 -81 50 -20 -15 -24 -27 -25 -65 0 -62 -14 -97 -53
-130 -51 -43 -59 -33 -24 30 62 109 70 142 65 266 -3 61 -9 119 -12 128 -8 19
16 27 73 24 30 -1 36 -5 48 -41z m390 -27 c-2 -13 -2 -17 0 -10 5 15 18 15 45
1 18 -10 20 -9 15 5 -7 19 -3 20 23 6 12 -7 17 -16 13 -27 -5 -14 -1 -15 26
-10 27 6 33 3 43 -19 7 -15 17 -23 26 -19 9 3 12 0 9 -9 -6 -14 27 -56 43 -56
6 0 10 -24 10 -52 -1 -44 -3 -50 -13 -37 -10 13 -12 9 -13 -30 -4 -186 -9
-269 -17 -264 -5 3 -15 21 -23 39 -8 19 -21 34 -30 34 -13 0 -14 -8 -7 -47 4
-27 8 -90 8 -141 0 -91 -1 -94 -29 -119 -32 -27 -69 -26 -113 3 -72 46 -81
144 -33 334 35 137 39 247 14 347 -9 35 -13 70 -10 78 8 23 17 18 13 -7z
m-678 -169 c1 -76 -2 -92 -29 -146 -17 -33 -40 -68 -51 -79 -25 -22 -25 -21
19 66 29 58 33 77 39 180 8 130 20 118 22 -21z m-139 100 c0 -5 -13 -24 -30
-42 -28 -33 -29 -35 -12 -51 25 -22 37 -20 55 7 16 22 16 22 16 1 1 -16 -12
-28 -46 -45 -27 -13 -61 -32 -76 -43 l-28 -18 21 -15 c17 -12 29 -13 65 -4 78
20 89 8 26 -27 -49 -28 -75 -28 -101 0 -18 20 -20 20 -20 4 0 -15 -3 -16 -14
-7 -33 27 -25 102 18 159 41 56 126 110 126 81z m-420 -24 c0 -8 -9 -15 -20
-15 -20 0 -26 11 -13 23 12 13 33 7 33 -8z m1480 1 c0 -3 -4 -8 -10 -11 -5 -3
-10 -1 -10 4 0 6 5 11 10 11 6 0 10 -2 10 -4z m-626 -207 c-3 -5 -14 -4 -25 1
-20 11 -24 22 -12 33 9 9 44 -23 37 -34z m245 -536 c11 -21 34 -53 51 -72 17
-18 28 -36 25 -39 -3 -4 -9 -2 -13 4 -4 6 -17 14 -28 18 -35 11 -58 44 -60 87
-1 21 0 39 2 39 2 0 12 -17 23 -37z m351 -57 c0 -17 -14 -34 -25 -30 -14 6
-55 -33 -55 -52 0 -7 5 -16 11 -20 6 -3 9 -19 5 -35 -3 -16 1 -40 9 -56 22
-42 18 -63 -6 -31 -11 15 -40 37 -64 49 -57 28 -101 76 -108 116 -8 40 6 50
39 28 23 -15 29 -15 67 -2 76 27 127 40 127 33z m157 -219 c15 -23 32 -53 39
-66 7 -13 60 -77 119 -143 58 -66 104 -122 101 -125 -7 -8 -153 81 -220 134
-59 46 -73 80 -79 195 -4 64 2 65 40 5z"/>
<path d="M9525 9290 c28 -12 37 -12 30 0 -3 6 -16 10 -28 9 -21 0 -21 -1 -2
-9z"/>
<path d="M8660 4030 c0 -5 5 -10 10 -10 6 0 10 5 10 10 0 6 -4 10 -10 10 -5 0
-10 -4 -10 -10z"/>
</g>
</svg>
